static_grf.mot
version=1
nRows=12
nColumns 19
inDegrees=yes
endheader
time	1_ground_force_vx	1_ground_force_vy	1_ground_force_vz	1_ground_force_px	1_ground_force_py	1_ground_force_pz	1_ground_torque_x	1_ground_torque_y	1_ground_torque_z	2_ground_force_vx	2_ground_force_vy	2_ground_force_vz	2_ground_force_px	2_ground_force_py	2_ground_force_pz	2_ground_torque_x	2_ground_torque_y	2_ground_torque_z
            1.501500	           -4.425682	          427.013976	          -32.138279	           -0.298625	            0.006151	           -0.391399	           -0.020016	            1.931243	           -0.145351	            1.832585	          482.551993	           33.584820	           -0.309996	            0.005384	           -0.703061	           -0.001516	           -0.399265	           -0.027788
            1.502000	           -4.654489	          426.652811	          -32.001684	           -0.298887	            0.006152	           -0.391678	           -0.020712	            1.898562	           -0.142404	            1.643253	          483.103236	           33.727655	           -0.309872	            0.005385	           -0.703171	           -0.001265	           -0.371945	           -0.025967
            1.502500	           -4.562656	          426.472397	          -31.956832	           -0.298855	            0.006153	           -0.391687	           -0.020699	            1.934722	           -0.144974	            2.065588	          482.920450	           33.773746	           -0.309856	            0.005384	           -0.703045	           -0.001801	           -0.421091	           -0.029450
            1.503000	           -4.562770	          426.472593	          -32.002685	           -0.298812	            0.006152	           -0.391516	           -0.020625	            1.927770	           -0.144661	            1.595636	          483.288044	           33.493691	           -0.309734	            0.005385	           -0.703220	           -0.001039	           -0.314716	           -0.021811
            1.503500	           -4.517580	          427.554983	          -32.181584	           -0.298410	            0.006150	           -0.391102	           -0.020925	            1.980437	           -0.149065	            1.737535	          482.920103	           33.539245	           -0.309824	            0.005385	           -0.703355	           -0.001322	           -0.367451	           -0.025520
            1.504000	           -4.793028	          427.195185	          -32.365871	           -0.298810	            0.006152	           -0.391499	           -0.021547	            1.920482	           -0.145503	            1.599062	          482.366504	           33.725047	           -0.310194	            0.005382	           -0.702893	           -0.001031	           -0.310911	           -0.021738
            1.504500	           -4.517287	          427.194058	          -32.091418	           -0.298647	            0.006151	           -0.391382	           -0.020657	            1.953539	           -0.146753	            1.877523	          483.103914	           33.774483	           -0.309828	            0.005384	           -0.703055	           -0.001575	           -0.405160	           -0.028325
            1.505000	           -4.334208	          427.555018	          -32.182039	           -0.298611	            0.006150	           -0.391187	           -0.020114	            1.984163	           -0.149348	            1.828536	          483.657339	           33.447978	           -0.309670	            0.005386	           -0.703242	           -0.001319	           -0.348980	           -0.024134
            1.505500	           -4.655304	          427.375053	          -32.273728	           -0.298674	            0.006151	           -0.391301	           -0.021320	            1.957297	           -0.147808	            1.878188	          482.919774	           33.773826	           -0.309938	            0.005385	           -0.703238	           -0.001513	           -0.389116	           -0.027214
            1.506000	           -4.700497	          427.554161	          -31.997705	           -0.298582	            0.006151	           -0.391302	           -0.020608	            1.874450	           -0.140282	            1.782474	          483.472025	           33.728909	           -0.309883	            0.005385	           -0.703310	           -0.001578	           -0.427950	           -0.029855
            1.506500	           -4.379287	          427.733868	          -31.860165	           -0.298514	            0.006150	           -0.390966	           -0.019728	            1.926900	           -0.143527	            1.642630	          483.287042	           33.822168	           -0.309885	            0.005385	           -0.703181	           -0.001162	           -0.341821	           -0.023922
            1.507000	           -4.608386	          426.472191	          -31.910859	           -0.298949	            0.006151	           -0.391374	           -0.020855	            1.930012	           -0.144414	            1.691617	          482.733617	           34.148674	           -0.309767	            0.005385	           -0.703228	           -0.001493	           -0.426125	           -0.030144
